<svg aria-hidden="true" style="position: absolute; width: 0; height: 0; overflow: hidden;" version="1.1" xmlns="http://www.w3.org/2000/svg" xmlns:xlink="http://www.w3.org/1999/xlink">
<defs>
<symbol id="icon-arrow-home" viewBox="0 0 148 32">
<path fill="#fff" style="fill: var(--color1, #fff)" d="M1.586 14.586c-0.781 0.781-0.781 2.047 0 2.828l12.728 12.728c0.781 0.781 2.047 0.781 2.828 0s0.781-2.047 0-2.828l-11.314-11.314 11.314-11.314c0.781-0.781 0.781-2.047 0-2.828s-2.047-0.781-2.828 0l-12.728 12.728zM3 18h144v-4h-144v4z"></path>
</symbol>
<symbol id="icon-arrow-left" viewBox="0 0 139 32">
<path fill="#fff" style="fill: var(--color1, #fff)" d="M0.625 14.492c-0.833 0.833-0.833 2.184 0 3.017l13.576 13.576c0.833 0.833 2.184 0.833 3.017 0s0.833-2.184 0-3.017l-12.068-12.068 12.068-12.068c0.833-0.833 0.833-2.184 0-3.017s-2.184-0.833-3.017 0l-13.576 13.576zM138.667 13.867h-136.533v4.267h136.533v-4.267z"></path>
</symbol>
<symbol id="icon-arrow-long-left" viewBox="0 0 414 32">
<path fill="#fff" style="fill: var(--color1, #fff)" d="M0.586 14.586c-0.781 0.781-0.781 2.047 0 2.828l12.728 12.728c0.781 0.781 2.047 0.781 2.828 0s0.781-2.047 0-2.829l-11.314-11.314 11.314-11.314c0.781-0.781 0.781-2.047 0-2.828s-2.047-0.781-2.828 0l-12.728 12.728zM414 14l-412-0v4l412 0v-4z"></path>
</symbol>
<symbol id="icon-arrow-long-right" viewBox="0 0 414 32">
<path fill="#fff" style="fill: var(--color1, #fff)" d="M413.414 17.414c0.782-0.781 0.782-2.047 0-2.828l-12.728-12.728c-0.78-0.781-2.048-0.781-2.828 0-0.782 0.781-0.782 2.047 0 2.828l11.314 11.314-11.314 11.314c-0.782 0.781-0.782 2.047 0 2.829 0.78 0.781 2.048 0.781 2.828 0l12.728-12.728zM0 18l412-0v-4l-412 0v4z"></path>
</symbol>
<symbol id="icon-arrow-rigth" viewBox="0 0 130 32">
<path fill="#fff" style="fill: var(--color1, #fff)" d="M129.414 17.414c0.781-0.781 0.781-2.047 0-2.828l-12.728-12.728c-0.781-0.781-2.047-0.781-2.828 0s-0.781 2.047 0 2.828l11.314 11.314-11.314 11.314c-0.781 0.781-0.781 2.047 0 2.829s2.047 0.781 2.828 0l12.728-12.728zM0 18l128-0v-4l-128 0v4z"></path>
</symbol>
<symbol id="icon-arrow-up" viewBox="0 0 18 32">
<path fill="#fff" style="fill: var(--color1, #fff)" d="M9.727 0.347c-0.463-0.463-1.213-0.463-1.676 0l-7.542 7.542c-0.463 0.463-0.463 1.213 0 1.676s1.213 0.463 1.676 0l6.704-6.704 6.704 6.704c0.463 0.463 1.213 0.463 1.676 0s0.463-1.213 0-1.676l-7.543-7.542zM10.074 32v-30.815h-2.37v30.815h2.37z"></path>
</symbol>
<symbol id="icon-cameravideo" viewBox="0 0 43 32">
<path fill="none" stroke="#fff" style="stroke: var(--color1, #fff)" stroke-linejoin="round" stroke-linecap="round" stroke-miterlimit="4" stroke-width="4" d="M7.6 2h19.6c3.102 0 5.6 2.498 5.6 5.6v16.8c0 3.102-2.498 5.6-5.6 5.6h-19.6c-3.102 0-5.6-2.498-5.6-5.6v-16.8c0-3.102 2.498-5.6 5.6-5.6z"></path>
<path fill="none" stroke="#fff" style="stroke: var(--color1, #fff)" stroke-linejoin="round" stroke-linecap="round" stroke-miterlimit="4" stroke-width="4" d="M32.8 21.6l8.4 5.6v-22.4l-8.4 5.6"></path>
</symbol>
<symbol id="icon-email" viewBox="0 0 32 32">
<path fill="#fff" style="fill: var(--color1, #fff)" d="M4 6.667v-0.667c-0.177 0-0.346 0.070-0.471 0.195s-0.195 0.295-0.195 0.471h0.667zM28 6.667h0.667c0-0.177-0.070-0.346-0.195-0.471s-0.294-0.195-0.471-0.195v0.667zM4 7.333h24v-1.333h-24v1.333zM27.333 6.667v16h1.333v-16h-1.333zM25.333 24.667h-18.667v1.333h18.667v-1.333zM4.667 22.667v-16h-1.333v16h1.333zM6.667 24.667c-0.53 0-1.039-0.211-1.414-0.586s-0.586-0.884-0.586-1.414h-1.333c0 0.884 0.351 1.732 0.976 2.357s1.473 0.976 2.357 0.976v-1.333zM27.333 22.667c0 0.53-0.211 1.039-0.586 1.414s-0.884 0.586-1.414 0.586v1.333c0.884 0 1.732-0.351 2.357-0.976s0.976-1.473 0.976-2.357h-1.333z"></path>
<path fill="none" stroke="#fff" style="stroke: var(--color1, #fff)" stroke-linejoin="round" stroke-linecap="round" stroke-miterlimit="4" stroke-width="1.0667" d="M4 6.667l12 12 12-12"></path>
</symbol>

<symbol id="icon-instagram" viewBox="0 0 32 32">
<path fill="none" stroke="#fff" style="stroke: var(--color1, #fff)" stroke-linejoin="round" stroke-linecap="round" stroke-miterlimit="4" stroke-width="1.6" d="M16 21.333c1.415 0 2.771-0.562 3.771-1.562s1.562-2.357 1.562-3.771-0.562-2.771-1.562-3.771c-1-1-2.357-1.562-3.771-1.562s-2.771 0.562-3.771 1.562c-1 1-1.562 2.357-1.562 3.771s0.562 2.771 1.562 3.771c1 1 2.357 1.562 3.771 1.562z"></path>
<path fill="none" stroke="#fff" style="stroke: var(--color1, #fff)" stroke-linejoin="miter" stroke-linecap="butt" stroke-miterlimit="4" stroke-width="1.6" d="M4 21.333v-10.667c0-1.768 0.702-3.464 1.953-4.714s2.946-1.953 4.714-1.953h10.667c1.768 0 3.464 0.702 4.714 1.953s1.953 2.946 1.953 4.714v10.667c0 1.768-0.702 3.464-1.953 4.714s-2.946 1.953-4.714 1.953h-10.667c-1.768 0-3.464-0.702-4.714-1.953s-1.953-2.946-1.953-4.714z"></path>
<path fill="none" stroke="#fff" style="stroke: var(--color1, #fff)" stroke-linejoin="round" stroke-linecap="round" stroke-miterlimit="4" stroke-width="1.6" d="M23.333 8.683l0.016-0.018"></path>
</symbol>

<symbol id="icon-menu-full" viewBox="0 0 32 32">
<path fill="none" stroke="#fff" style="stroke: var(--color1, #fff)" stroke-linejoin="round" stroke-linecap="round" stroke-miterlimit="4" stroke-width="2" d="M30.857 4.572h-29.714M30.857 16h-29.714M30.857 27.429h-29.714"></path>
</symbol>
<symbol id="icon-menu-with-bevel" viewBox="0 0 32 32">
<path fill="none" stroke="#fff" style="stroke: var(--color1, #fff)" stroke-linejoin="round" stroke-linecap="round" stroke-miterlimit="4" stroke-width="2" d="M30.857 4.572h-29.714M30.857 16h-22.457M30.857 27.429h-18.057"></path>
</symbol>
<symbol id="icon-phone" viewBox="0 0 32 32">
<path fill="#fff" style="fill: var(--color1, #fff)" d="M27.699 20.037l-5.905-2.646c-0.268-0.115-0.559-0.161-0.849-0.134s-0.568 0.125-0.811 0.287c-0.025 0.016-0.048 0.033-0.070 0.052l-3.086 2.625c-0.032 0.017-0.068 0.027-0.104 0.029s-0.073-0.006-0.106-0.021c-1.984-0.957-4.039-3-5-4.956-0.016-0.033-0.024-0.069-0.024-0.105s0.008-0.072 0.024-0.105l2.634-3.125c0.019-0.023 0.036-0.047 0.052-0.073 0.159-0.243 0.255-0.522 0.28-0.812s-0.024-0.581-0.14-0.847l-2.628-5.895c-0.149-0.348-0.407-0.638-0.735-0.827s-0.709-0.266-1.085-0.22c-1.633 0.215-3.133 1.017-4.218 2.257s-1.682 2.832-1.678 4.48c0 9.788 7.962 17.75 17.75 17.75 1.647 0.003 3.24-0.593 4.479-1.679s2.042-2.584 2.257-4.218c0.046-0.374-0.030-0.753-0.218-1.080s-0.474-0.585-0.82-0.736zM22 26.25c-8.96 0-16.25-7.29-16.25-16.25-0.004-1.283 0.459-2.523 1.302-3.489s2.010-1.592 3.281-1.761h0.029c0.050 0.001 0.099 0.017 0.14 0.046s0.072 0.070 0.090 0.117l2.637 5.889c0.015 0.033 0.023 0.068 0.023 0.104s-0.008 0.072-0.023 0.104l-2.639 3.133c-0.020 0.022-0.038 0.046-0.054 0.071-0.165 0.252-0.262 0.543-0.282 0.843s0.038 0.601 0.169 0.873c1.109 2.27 3.396 4.54 5.691 5.649 0.273 0.13 0.575 0.186 0.877 0.164s0.593-0.122 0.844-0.289c0.024-0.016 0.047-0.034 0.070-0.053l3.085-2.625c0.030-0.016 0.064-0.026 0.099-0.028s0.069 0.003 0.101 0.016l5.906 2.646c0.048 0.021 0.089 0.056 0.116 0.101s0.039 0.097 0.035 0.149c-0.168 1.272-0.793 2.439-1.759 3.284s-2.206 1.308-3.489 1.305z"></path>
</symbol>
<symbol id="icon-telegram" viewBox="0 0 32 32">
<path fill="#fff" style="fill: var(--color1, #fff)" d="M29.284 3.652c-0.086-0.075-0.191-0.124-0.304-0.143s-0.228-0.007-0.334 0.034l-25.333 9.914c-0.258 0.1-0.477 0.282-0.623 0.517s-0.212 0.512-0.187 0.788c0.025 0.276 0.138 0.536 0.324 0.742s0.433 0.345 0.705 0.398l6.968 1.367v7.73c-0 0.299 0.089 0.591 0.257 0.839s0.405 0.44 0.682 0.552c0.179 0.072 0.369 0.108 0.561 0.109 0.201-0.001 0.4-0.041 0.585-0.121s0.352-0.194 0.492-0.34l3.5-3.625 5.375 4.714c0.272 0.24 0.623 0.374 0.986 0.375 0.159-0.001 0.316-0.026 0.468-0.074 0.247-0.078 0.47-0.22 0.646-0.411s0.298-0.425 0.354-0.678l5.077-22.075c0.026-0.111 0.020-0.226-0.015-0.334s-0.099-0.204-0.185-0.279zM3.5 14.672c-0.007-0.060 0.006-0.122 0.039-0.173s0.081-0.091 0.139-0.11l21.831-8.544-14.625 10.481-7.157-1.405c-0.061-0.009-0.116-0.039-0.158-0.084s-0.066-0.104-0.069-0.165zM12.359 25.345c-0.069 0.071-0.158 0.12-0.255 0.141s-0.198 0.012-0.29-0.025c-0.092-0.037-0.171-0.101-0.227-0.183s-0.086-0.179-0.087-0.278v-7.038l4.322 3.788-3.464 3.595zM23.431 26.112c-0.019 0.085-0.060 0.163-0.119 0.227s-0.134 0.112-0.217 0.138c-0.083 0.026-0.171 0.031-0.257 0.012s-0.164-0.058-0.229-0.117l-10.806-9.476 16.462-11.797-4.835 21.013z"></path>
</symbol>
</defs>
</svg>
